<svg xmlns="http://www.w3.org/2000/svg" xmlns:xlink="http://www.w3.org/1999/xlink" width="500" zoomAndPan="magnify" viewBox="0 0 375 374.999991" height="500" preserveAspectRatio="xMidYMid meet" version="1.0"><path fill="#fd8731" d="M 120.367188 157.144531 C 121.164062 155.28125 122.023438 153.449219 122.953125 151.644531 C 123.878906 149.84375 124.875 148.078125 125.929688 146.351562 C 126.988281 144.621094 128.105469 142.933594 129.285156 141.289062 C 130.464844 139.640625 131.703125 138.039062 133 136.484375 C 134.296875 134.925781 135.648438 133.421875 137.054688 131.964844 C 138.464844 130.507812 139.921875 129.101562 141.429688 127.75 C 142.941406 126.402344 144.496094 125.105469 146.097656 123.871094 C 147.703125 122.632812 149.347656 121.457031 151.039062 120.339844 C 152.726562 119.222656 154.457031 118.171875 156.222656 117.179688 C 157.988281 116.191406 159.789062 115.265625 161.621094 114.40625 C 163.453125 113.550781 165.316406 112.757812 167.207031 112.035156 C 169.097656 111.316406 171.015625 110.664062 172.953125 110.082031 C 174.890625 109.5 176.847656 108.988281 178.824219 108.550781 C 180.800781 108.109375 182.789062 107.742188 184.792969 107.449219 C 186.796875 107.15625 188.804688 106.9375 190.824219 106.789062 C 192.84375 106.644531 194.863281 106.570312 196.886719 106.574219 L 301.996094 106.574219 C 300.640625 104.792969 299.242188 103.042969 297.804688 101.332031 C 296.367188 99.617188 294.886719 97.9375 293.367188 96.292969 C 291.847656 94.652344 290.292969 93.042969 288.695312 91.476562 C 287.101562 89.90625 285.46875 88.378906 283.796875 86.886719 C 282.128906 85.398438 280.425781 83.949219 278.6875 82.539062 C 276.949219 81.132812 275.175781 79.765625 273.375 78.441406 C 271.570312 77.117188 269.734375 75.839844 267.871094 74.605469 C 266.003906 73.367188 264.113281 72.179688 262.191406 71.035156 C 260.269531 69.890625 258.320312 68.792969 256.34375 67.738281 C 254.371094 66.6875 252.371094 65.6875 250.351562 64.730469 C 248.328125 63.773438 246.285156 62.867188 244.21875 62.011719 C 242.152344 61.15625 240.066406 60.347656 237.960938 59.589844 C 235.859375 58.832031 233.738281 58.128906 231.597656 57.472656 C 229.460938 56.816406 227.308594 56.214844 225.140625 55.660156 C 222.972656 55.109375 220.796875 54.609375 218.605469 54.164062 C 216.414062 53.714844 214.210938 53.320312 212.003906 52.976562 C 209.792969 52.636719 207.578125 52.347656 205.351562 52.113281 C 203.128906 51.878906 200.902344 51.695312 198.667969 51.566406 C 196.4375 51.4375 194.203125 51.363281 191.964844 51.339844 C 189.730469 51.320312 187.496094 51.351562 185.261719 51.4375 C 183.027344 51.523438 180.796875 51.664062 178.566406 51.855469 C 176.339844 52.050781 174.117188 52.296875 171.902344 52.597656 C 169.6875 52.894531 167.480469 53.246094 165.28125 53.652344 C 163.082031 54.058594 160.890625 54.515625 158.714844 55.027344 C 156.539062 55.539062 154.375 56.101562 152.222656 56.714844 C 150.074219 57.328125 147.941406 57.996094 145.820312 58.710938 C 143.703125 59.429688 141.601562 60.195312 139.519531 61.011719 C 137.4375 61.832031 135.378906 62.699219 133.339844 63.613281 C 131.296875 64.53125 129.28125 65.496094 127.285156 66.507812 C 125.292969 67.523438 123.324219 68.582031 121.378906 69.691406 C 119.4375 70.796875 117.519531 71.953125 115.632812 73.152344 C 113.746094 74.351562 111.886719 75.59375 110.058594 76.882812 C 108.230469 78.171875 106.433594 79.503906 104.667969 80.878906 C 102.902344 82.253906 101.171875 83.671875 99.476562 85.128906 C 97.777344 86.585938 96.117188 88.085938 94.492188 89.625 C 92.867188 91.160156 91.277344 92.738281 89.726562 94.351562 C 88.175781 95.964844 86.667969 97.617188 85.195312 99.300781 C 83.726562 100.988281 82.292969 102.710938 80.90625 104.464844 C 79.515625 106.21875 78.171875 108.007812 76.867188 109.828125 C 75.566406 111.644531 74.304688 113.496094 73.089844 115.375 C 71.875 117.257812 70.707031 119.164062 69.582031 121.101562 C 68.460938 123.035156 67.382812 125 66.355469 126.988281 C 65.324219 128.976562 64.34375 130.988281 63.410156 133.019531 C 62.476562 135.054688 61.589844 137.113281 60.757812 139.191406 C 59.921875 141.265625 59.136719 143.363281 58.402344 145.480469 C 57.667969 147.59375 56.984375 149.726562 56.351562 151.875 C 55.71875 154.019531 55.136719 156.183594 54.609375 158.359375 C 54.078125 160.535156 53.601562 162.722656 53.175781 164.921875 C 52.75 167.117188 52.378906 169.328125 52.0625 171.542969 C 51.742188 173.757812 51.476562 175.984375 51.261719 178.210938 C 51.050781 180.441406 50.890625 182.675781 50.785156 184.910156 C 50.679688 187.148438 50.625 189.386719 50.628906 191.625 C 50.628906 193.863281 50.683594 196.101562 50.792969 198.339844 C 50.902344 200.578125 51.0625 202.808594 51.277344 205.039062 C 51.492188 207.269531 51.761719 209.492188 52.082031 211.707031 C 52.402344 213.921875 52.777344 216.128906 53.203125 218.328125 C 53.632812 220.527344 54.109375 222.714844 54.640625 224.886719 C 55.175781 227.0625 55.757812 229.226562 56.390625 231.371094 C 57.027344 233.519531 57.714844 235.648438 58.449219 237.765625 C 59.1875 239.878906 59.972656 241.972656 60.8125 244.050781 C 61.648438 246.128906 62.535156 248.183594 63.46875 250.214844 C 64.40625 252.25 65.390625 254.261719 66.421875 256.246094 C 67.453125 258.234375 68.53125 260.195312 69.65625 262.128906 C 70.78125 264.066406 71.953125 265.972656 73.171875 267.851562 Z M 120.367188 157.144531 " fill-opacity="1" fill-rule="nonzero"/><path fill="#fd8731" d="M 279.3125 160.445312 L 193.988281 160.445312 C 192.769531 160.445312 191.554688 160.535156 190.347656 160.710938 C 189.136719 160.890625 187.949219 161.152344 186.78125 161.503906 C 185.613281 161.855469 184.472656 162.289062 183.367188 162.808594 C 182.261719 163.328125 181.203125 163.921875 180.183594 164.597656 C 179.164062 165.269531 178.199219 166.011719 177.289062 166.828125 C 176.378906 167.640625 175.535156 168.519531 174.75 169.457031 C 173.96875 170.394531 173.257812 171.386719 172.621094 172.429688 C 171.984375 173.472656 171.425781 174.554688 170.945312 175.679688 L 159.609375 202.339844 L 296.761719 202.339844 C 296.128906 203.828125 295.441406 205.292969 294.699219 206.730469 C 293.957031 208.167969 293.164062 209.578125 292.320312 210.957031 C 291.476562 212.339844 290.585938 213.6875 289.640625 215 C 288.699219 216.316406 287.710938 217.59375 286.675781 218.835938 C 285.640625 220.078125 284.5625 221.28125 283.4375 222.445312 C 282.316406 223.609375 281.152344 224.730469 279.949219 225.808594 C 278.742188 226.886719 277.5 227.921875 276.222656 228.910156 C 274.941406 229.898438 273.625 230.835938 272.277344 231.730469 C 270.929688 232.621094 269.550781 233.460938 268.140625 234.253906 C 266.730469 235.042969 265.296875 235.78125 263.832031 236.46875 C 262.367188 237.15625 260.882812 237.785156 259.371094 238.363281 C 257.863281 238.941406 256.332031 239.460938 254.785156 239.929688 C 253.238281 240.394531 251.675781 240.800781 250.097656 241.152344 C 248.519531 241.503906 246.933594 241.796875 245.335938 242.035156 C 243.734375 242.269531 242.128906 242.445312 240.519531 242.5625 C 238.90625 242.683594 237.292969 242.742188 235.679688 242.742188 L 160.175781 242.742188 C 158.863281 242.742188 157.554688 242.835938 156.253906 243.027344 C 154.953125 243.21875 153.671875 243.503906 152.414062 243.882812 C 151.15625 244.261719 149.929688 244.730469 148.738281 245.289062 C 147.546875 245.847656 146.40625 246.492188 145.308594 247.214844 C 144.210938 247.941406 143.171875 248.742188 142.191406 249.621094 C 141.210938 250.5 140.300781 251.445312 139.457031 252.453125 C 138.617188 253.464844 137.851562 254.53125 137.164062 255.65625 C 136.476562 256.777344 135.875 257.945312 135.359375 259.15625 L 114.140625 308.960938 C 117.183594 310.945312 120.296875 312.808594 123.484375 314.550781 C 126.671875 316.292969 129.917969 317.910156 133.230469 319.398438 C 136.542969 320.886719 139.90625 322.246094 143.324219 323.472656 C 146.742188 324.699219 150.199219 325.792969 153.703125 326.75 C 157.207031 327.707031 160.738281 328.527344 164.304688 329.210938 C 167.871094 329.894531 171.457031 330.4375 175.066406 330.839844 C 178.671875 331.242188 182.289062 331.503906 185.917969 331.628906 C 189.546875 331.75 193.175781 331.726562 196.800781 331.566406 C 200.429688 331.40625 204.042969 331.105469 207.644531 330.660156 C 211.25 330.21875 214.832031 329.636719 218.386719 328.914062 C 221.945312 328.195312 225.472656 327.335938 228.960938 326.339844 C 232.453125 325.34375 235.902344 324.210938 239.304688 322.949219 C 242.707031 321.683594 246.058594 320.289062 249.351562 318.761719 C 252.648438 317.238281 255.878906 315.585938 259.046875 313.808594 C 262.214844 312.03125 265.308594 310.132812 268.328125 308.117188 C 271.347656 306.097656 274.28125 303.964844 277.136719 301.71875 C 279.992188 299.472656 282.753906 297.117188 285.425781 294.65625 C 288.097656 292.195312 290.667969 289.632812 293.140625 286.96875 C 295.613281 284.308594 297.976562 281.550781 300.238281 278.707031 C 302.496094 275.859375 304.640625 272.929688 306.671875 269.914062 C 308.703125 266.902344 310.613281 263.8125 312.402344 260.652344 C 314.195312 257.488281 315.859375 254.261719 317.402344 250.96875 C 318.941406 247.679688 320.351562 244.332031 321.632812 240.929688 C 322.914062 237.527344 324.0625 234.082031 325.074219 230.589844 C 326.085938 227.097656 326.964844 223.570312 327.703125 220.011719 C 328.441406 216.453125 329.042969 212.871094 329.503906 209.261719 C 329.964844 205.65625 330.285156 202.039062 330.464844 198.40625 C 330.644531 194.777344 330.683594 191.144531 330.582031 187.507812 C 330.480469 183.875 330.238281 180.25 329.851562 176.632812 C 329.46875 173.019531 328.945312 169.421875 328.285156 165.847656 C 327.621094 162.273438 326.820312 158.730469 325.882812 155.21875 C 324.945312 151.707031 323.875 148.234375 322.664062 144.808594 C 319.640625 147.316406 316.425781 149.550781 313.015625 151.5 C 309.605469 153.453125 306.050781 155.09375 302.355469 156.425781 C 298.660156 157.761719 294.878906 158.765625 291.007812 159.4375 C 287.140625 160.113281 283.242188 160.449219 279.3125 160.445312 Z M 279.3125 160.445312 " fill-opacity="1" fill-rule="nonzero"/><path fill="#21768f" d="M 120.367188 157.144531 C 121.164062 155.28125 122.023438 153.449219 122.953125 151.644531 C 123.878906 149.84375 124.875 148.078125 125.929688 146.351562 C 126.988281 144.621094 128.105469 142.933594 129.285156 141.289062 C 130.464844 139.640625 131.703125 138.039062 133 136.484375 C 134.296875 134.925781 135.648438 133.421875 137.054688 131.964844 C 138.464844 130.507812 139.921875 129.101562 141.429688 127.75 C 142.941406 126.402344 144.496094 125.105469 146.097656 123.871094 C 147.703125 122.632812 149.347656 121.457031 151.039062 120.339844 C 152.726562 119.222656 154.457031 118.171875 156.222656 117.179688 C 157.988281 116.191406 159.789062 115.265625 161.621094 114.40625 C 163.453125 113.550781 165.316406 112.757812 167.207031 112.035156 C 169.097656 111.316406 171.015625 110.664062 172.953125 110.082031 C 174.890625 109.5 176.847656 108.988281 178.824219 108.550781 C 180.800781 108.109375 182.789062 107.742188 184.792969 107.449219 C 186.796875 107.15625 188.804688 106.9375 190.824219 106.789062 C 192.84375 106.644531 194.863281 106.570312 196.886719 106.574219 L 301.976562 106.574219 C 300.621094 104.792969 299.226562 103.046875 297.785156 101.332031 C 296.347656 99.617188 294.867188 97.941406 293.351562 96.296875 C 291.832031 94.65625 290.273438 93.050781 288.679688 91.480469 C 287.082031 89.914062 285.449219 88.382812 283.78125 86.894531 C 282.113281 85.40625 280.410156 83.957031 278.671875 82.546875 C 276.933594 81.140625 275.160156 79.773438 273.359375 78.453125 C 271.554688 77.128906 269.71875 75.851562 267.855469 74.613281 C 265.992188 73.378906 264.097656 72.191406 262.175781 71.046875 C 260.253906 69.902344 258.308594 68.804688 256.332031 67.753906 C 254.359375 66.703125 252.359375 65.699219 250.339844 64.746094 C 248.316406 63.792969 246.273438 62.886719 244.207031 62.027344 C 242.144531 61.171875 240.058594 60.367188 237.953125 59.609375 C 235.851562 58.851562 233.730469 58.144531 231.589844 57.492188 C 229.453125 56.835938 227.300781 56.234375 225.136719 55.679688 C 222.96875 55.128906 220.789062 54.628906 218.601562 54.183594 C 216.410156 53.734375 214.210938 53.339844 212 53 C 209.789062 52.65625 207.574219 52.371094 205.351562 52.132812 C 203.128906 51.898438 200.902344 51.71875 198.667969 51.589844 C 196.4375 51.460938 194.203125 51.386719 191.96875 51.363281 C 189.734375 51.34375 187.496094 51.375 185.265625 51.460938 C 183.03125 51.546875 180.800781 51.6875 178.574219 51.878906 C 176.34375 52.074219 174.125 52.320312 171.910156 52.617188 C 169.691406 52.917969 167.488281 53.269531 165.289062 53.675781 C 163.089844 54.082031 160.902344 54.539062 158.726562 55.050781 C 156.546875 55.5625 154.386719 56.121094 152.234375 56.738281 C 150.085938 57.351562 147.953125 58.015625 145.835938 58.734375 C 143.714844 59.449219 141.617188 60.21875 139.535156 61.035156 C 137.453125 61.851562 135.394531 62.71875 133.355469 63.632812 C 131.3125 64.550781 129.296875 65.515625 127.304688 66.527344 C 125.308594 67.542969 123.34375 68.601562 121.398438 69.710938 C 119.457031 70.816406 117.542969 71.96875 115.652344 73.167969 C 113.765625 74.367188 111.90625 75.613281 110.078125 76.902344 C 108.25 78.191406 106.453125 79.519531 104.691406 80.894531 C 102.925781 82.269531 101.195312 83.6875 99.5 85.144531 C 97.800781 86.601562 96.140625 88.097656 94.515625 89.636719 C 92.890625 91.175781 91.304688 92.75 89.753906 94.363281 C 88.203125 95.976562 86.691406 97.625 85.222656 99.3125 C 83.75 101 82.320312 102.71875 80.933594 104.472656 C 79.542969 106.226562 78.199219 108.015625 76.894531 109.835938 C 75.59375 111.652344 74.332031 113.503906 73.121094 115.382812 C 71.90625 117.261719 70.734375 119.167969 69.613281 121.105469 C 68.488281 123.042969 67.414062 125.003906 66.382812 126.988281 C 65.351562 128.976562 64.371094 130.988281 63.4375 133.023438 C 62.503906 135.058594 61.621094 137.113281 60.785156 139.191406 C 59.953125 141.265625 59.167969 143.363281 58.429688 145.476562 C 57.695312 147.589844 57.011719 149.722656 56.378906 151.871094 C 55.746094 154.015625 55.167969 156.179688 54.636719 158.351562 C 54.109375 160.527344 53.628906 162.714844 53.207031 164.914062 C 52.78125 167.113281 52.410156 169.316406 52.089844 171.535156 C 51.769531 173.75 51.503906 175.972656 51.292969 178.203125 C 51.078125 180.429688 50.917969 182.664062 50.8125 184.898438 C 50.707031 187.136719 50.652344 189.371094 50.65625 191.613281 C 50.65625 193.851562 50.710938 196.089844 50.816406 198.324219 C 50.925781 200.5625 51.085938 202.792969 51.300781 205.023438 C 51.515625 207.25 51.785156 209.472656 52.105469 211.6875 C 52.425781 213.902344 52.800781 216.109375 53.226562 218.308594 C 53.652344 220.507812 54.132812 222.691406 54.664062 224.867188 C 55.195312 227.042969 55.777344 229.203125 56.410156 231.347656 C 57.046875 233.496094 57.730469 235.625 58.46875 237.742188 C 59.203125 239.855469 59.992188 241.949219 60.828125 244.027344 C 61.664062 246.101562 62.550781 248.15625 63.484375 250.191406 C 64.421875 252.222656 65.402344 254.234375 66.433594 256.222656 C 67.464844 258.207031 68.542969 260.167969 69.667969 262.101562 C 70.792969 264.039062 71.964844 265.945312 73.179688 267.824219 Z M 120.367188 157.144531 " fill-opacity="1" fill-rule="nonzero"/><path fill="#042039" d="M 279.3125 160.445312 L 193.988281 160.445312 C 192.769531 160.445312 191.554688 160.535156 190.347656 160.710938 C 189.136719 160.890625 187.949219 161.152344 186.78125 161.503906 C 185.613281 161.855469 184.472656 162.289062 183.367188 162.808594 C 182.261719 163.328125 181.203125 163.921875 180.183594 164.597656 C 179.164062 165.269531 178.199219 166.011719 177.289062 166.828125 C 176.378906 167.640625 175.535156 168.519531 174.75 169.457031 C 173.96875 170.394531 173.257812 171.386719 172.621094 172.429688 C 171.984375 173.472656 171.425781 174.554688 170.945312 175.679688 L 159.609375 202.339844 L 181.90625 202.339844 L 185.789062 193.238281 C 186.265625 192.113281 186.824219 191.03125 187.464844 189.988281 C 188.101562 188.945312 188.808594 187.953125 189.59375 187.015625 C 190.375 186.078125 191.21875 185.199219 192.128906 184.386719 C 193.039062 183.570312 194.003906 182.824219 195.023438 182.152344 C 196.042969 181.476562 197.105469 180.882812 198.210938 180.363281 C 199.316406 179.84375 200.453125 179.410156 201.621094 179.058594 C 202.789062 178.707031 203.980469 178.441406 205.1875 178.265625 C 206.394531 178.085938 207.609375 177.996094 208.828125 177.996094 L 275.753906 177.996094 C 303.734375 178.355469 329.289062 155.933594 335.816406 130.21875 C 334.269531 132.535156 332.589844 134.75 330.769531 136.859375 C 328.953125 138.972656 327.011719 140.960938 324.949219 142.832031 C 322.886719 144.707031 320.71875 146.445312 318.445312 148.046875 C 316.167969 149.652344 313.804688 151.113281 311.347656 152.425781 C 308.894531 153.738281 306.367188 154.894531 303.769531 155.898438 C 301.171875 156.902344 298.523438 157.738281 295.824219 158.414062 C 293.125 159.09375 290.394531 159.601562 287.632812 159.941406 C 284.871094 160.277344 282.097656 160.449219 279.3125 160.445312 Z M 279.3125 160.445312 " fill-opacity="1" fill-rule="nonzero"/><path fill="#042039" d="M 235.679688 242.742188 L 160.175781 242.742188 C 158.863281 242.742188 157.554688 242.835938 156.253906 243.027344 C 154.953125 243.21875 153.671875 243.503906 152.414062 243.882812 C 151.15625 244.261719 149.929688 244.730469 148.738281 245.289062 C 147.546875 245.847656 146.40625 246.492188 145.308594 247.214844 C 144.210938 247.941406 143.171875 248.742188 142.191406 249.621094 C 141.210938 250.5 140.300781 251.445312 139.457031 252.453125 C 138.617188 253.464844 137.851562 254.53125 137.164062 255.65625 C 136.476562 256.777344 135.875 257.945312 135.359375 259.15625 L 104.316406 332.007812 C 115.652344 332.132812 128.992188 325.015625 132.140625 318.933594 L 150.144531 276.707031 C 150.660156 275.496094 151.261719 274.328125 151.949219 273.207031 C 152.636719 272.085938 153.402344 271.019531 154.242188 270.007812 C 155.085938 268.996094 155.996094 268.050781 156.976562 267.175781 C 157.957031 266.296875 158.996094 265.496094 160.09375 264.769531 C 161.191406 264.046875 162.335938 263.402344 163.523438 262.847656 C 164.714844 262.289062 165.941406 261.820312 167.199219 261.441406 C 168.457031 261.0625 169.738281 260.777344 171.039062 260.585938 C 172.339844 260.394531 173.648438 260.300781 174.960938 260.300781 L 239.949219 260.300781 C 266.550781 260.300781 296.761719 236.261719 296.761719 202.339844 C 296.128906 203.828125 295.441406 205.292969 294.699219 206.730469 C 293.957031 208.167969 293.164062 209.578125 292.320312 210.957031 C 291.476562 212.339844 290.585938 213.6875 289.640625 215 C 288.699219 216.316406 287.710938 217.59375 286.675781 218.835938 C 285.640625 220.078125 284.5625 221.28125 283.4375 222.445312 C 282.316406 223.609375 281.152344 224.730469 279.949219 225.808594 C 278.742188 226.886719 277.5 227.921875 276.222656 228.910156 C 274.941406 229.898438 273.625 230.835938 272.277344 231.730469 C 270.929688 232.621094 269.550781 233.460938 268.140625 234.253906 C 266.730469 235.042969 265.296875 235.78125 263.832031 236.46875 C 262.367188 237.15625 260.882812 237.785156 259.371094 238.363281 C 257.863281 238.941406 256.332031 239.460938 254.785156 239.929688 C 253.238281 240.394531 251.675781 240.800781 250.097656 241.152344 C 248.519531 241.503906 246.933594 241.796875 245.335938 242.035156 C 243.734375 242.269531 242.128906 242.445312 240.519531 242.5625 C 238.90625 242.683594 237.292969 242.742188 235.679688 242.742188 Z M 235.679688 242.742188 " fill-opacity="1" fill-rule="nonzero"/></svg>